<?xml version="1.0" encoding="UTF-8"?>
<!DOCTYPE svg PUBLIC "-//W3C//DTD SVG 1.1//EN" "http://www.w3.org/Graphics/SVG/1.1/DTD/svg11.dtd">
<!-- Creator: CorelDRAW 2020 (64-Bit) -->
<svg xmlns="http://www.w3.org/2000/svg" xml:space="preserve" width="50.5458mm" height="59.5198mm" version="1.1" style="shape-rendering:geometricPrecision; text-rendering:geometricPrecision; image-rendering:optimizeQuality; fill-rule:evenodd; clip-rule:evenodd"
viewBox="0 0 3744.74 4409.59"
 xmlns:xlink="http://www.w3.org/1999/xlink"
 xmlns:xodm="http://www.corel.com/coreldraw/odm/2003">
 <defs>
  <style type="text/css">
   <![CDATA[
    .fil2 {fill:white}
    .fil3 {fill:#4D4D4D;fill-rule:nonzero}
    .fil4 {fill:#567C7E;fill-rule:nonzero}
    .fil0 {fill:url(#id0)}
    .fil1 {fill:url(#id1)}
   ]]>
  </style>
  <linearGradient id="id0" gradientUnits="userSpaceOnUse" x1="30.78" y1="1873.97" x2="3698.17" y2="1873.97">
   <stop offset="0" style="stop-opacity:1; stop-color:#B47459"/>
   <stop offset="1" style="stop-opacity:1; stop-color:#CD8F6A"/>
  </linearGradient>
  <linearGradient id="id1" gradientUnits="userSpaceOnUse" x1="-0" y1="1873.27" x2="3744.73" y2="1873.27">
   <stop offset="0" style="stop-opacity:1; stop-color:#324F5D"/>
   <stop offset="1" style="stop-opacity:1; stop-color:#66908C"/>
  </linearGradient>
 </defs>
 <g id="Capa_x0020_1">
  <metadata id="CorelCorpID_0Corel-Layer"/>
  <g id="_1746095394512">
   <path class="fil0" d="M799.71 54.83l2115.91 0c430.4,0 782.56,352.15 782.56,782.56l0 2073.17c0,430.4 -352.15,782.56 -782.56,782.56l-2102.28 0c-430.4,0 -782.55,-352.15 -782.55,-782.56l0 -2086.81c0,-422.91 346.01,-768.92 768.92,-768.92z"/>
   <path class="fil1" d="M31.37 1940.52c0,0 -106.77,1630.62 1756.79,1751.94 1863.55,121.33 7.89,0.61 7.89,0.61l1235.7 0.6c0,0 544.76,0.01 661.23,-681.84 116.47,-681.84 0,-3.94 0,-3.94l-2.42 -1297.48c0,0 29.12,-1514.14 -1776.2,-1650.02 -1805.32,-135.89 -6.68,-0.01 -6.68,-0.01l-1218.72 -0.6c0,0 -626.03,38.82 -669.71,805.6 -43.67,766.78 0.61,4.24 0.61,4.24l11.51 1070.9z"/>
   <g>
    <path class="fil2" d="M597.46 1112.36c46.29,80.65 133.08,57.94 239.28,67.1 84.29,7.28 76.27,73.22 112.31,201.17 48.11,170.82 58.09,130.22 33.41,242.36 -20.61,93.69 -31.16,190.81 -24.55,290.82 16.71,252.68 132.72,484.44 307.1,631.04l85.72 67.82c31.95,23.06 62.65,44.07 100.44,62.4 43.47,6.51 124.3,-75.07 283.22,39.44 34.04,24.54 28.17,34.54 56.49,61.88 126.13,18.45 264.36,3.51 377.65,-32.02 52.68,-16.52 99.08,-32.75 144.56,-57.32 40.07,-21.66 100.13,-62.5 132.93,-75.5 83.43,70.31 158.23,183.47 258.89,234.58 74.35,3.16 111.08,-17.66 132.45,-63.71 64.54,-139.1 -115.2,-210.07 -216.15,-334.91 30.73,-74.77 243.16,-264.87 203.87,-694.98 -20.83,-228.08 -138.1,-462.69 -300.43,-596.95 -642.04,-531.02 -1284.27,-25.03 -1291.29,38.23l90.11 324.11c29.45,-30.17 74.51,-122.39 152.8,-177.67 72.49,-51.18 117.02,-85.57 224.14,-115.53 189.8,-53.08 398.74,-26.61 544.44,72.89 128.71,87.9 231.5,195.7 281.67,397.73 22.49,90.54 21.21,213.48 0.99,306.47 -7.74,35.64 -30.37,97.14 -44.39,126.59 -24.52,51.47 -36.4,86.2 -72.99,100.91 -27.02,-25.17 -41.66,-43.01 -66.15,-74.03 -2.06,1.14 -5.21,0.51 -6.08,3.64 -0.84,3.02 -4.55,2.83 -5.65,3.87l-30.46 35.06c-86.67,101.91 -81.85,68.57 -133.32,112.16 29.16,30.89 58.08,46.37 79.61,80.88 -53.04,65.46 -248.68,107.45 -319.72,111.11 -128.12,6.6 -254.68,-25.19 -352.78,-81.16 -225.72,-128.81 -195.34,-264.32 -291.74,-566.54 -69.1,-216.66 -125.67,-444.16 -184.99,-664.21 -41.93,-155.52 -48.04,-193.94 -221.71,-204.41 -101.65,-6.14 -330.09,-65.8 -279.67,126.69z"/>
    <path class="fil2" d="M2569.43 2973.24c23.77,-90.96 -40.94,-173.2 -109.33,-192.45 -96.1,-27.05 -181.16,37.95 -199.53,112.71 -52.46,213.43 256.97,278.26 308.86,79.75z"/>
    <path class="fil2" d="M1710.16 2981.33c61.58,-206.61 -246.48,-285.25 -304.23,-93.97 -30.59,101.29 35.21,179.67 109.05,200.29 93.65,26.15 174.88,-38.18 195.19,-106.32z"/>
   </g>
   <path class="fil3" d="M561.83 4163.84c0,27.56 -4.37,53.67 -13.11,78.32 -8.73,24.66 -21.26,47.27 -37.56,67.85l46.59 46 -53.57 53.58 -47.76 -48.33c-19.8,13.59 -41.54,24.26 -65.23,32.03 -23.68,7.76 -48.73,11.65 -75.12,11.65 -33.78,0 -65.51,-6.3 -95.22,-18.92 -29.7,-12.62 -55.71,-29.9 -78.03,-51.83 -22.33,-21.94 -39.9,-47.47 -52.7,-76.58 -12.82,-29.12 -19.22,-60.37 -19.22,-93.76 0,-33.39 6.4,-64.74 19.22,-94.05 12.81,-29.32 30.38,-54.94 52.7,-76.87 22.32,-21.94 48.33,-39.21 78.03,-51.83 29.7,-12.62 61.44,-18.93 95.22,-18.93 33.78,0 65.61,6.31 95.5,18.93 29.89,12.62 56,29.89 78.33,51.83 22.32,21.93 39.89,47.56 52.7,76.87 12.81,29.31 19.22,60.66 19.22,94.05zm-87.94 0c0,-21.36 -4.17,-41.55 -12.52,-60.57 -8.35,-19.03 -19.6,-35.72 -33.78,-50.09 -14.17,-14.36 -30.86,-25.72 -50.08,-34.06 -19.22,-8.35 -39.7,-12.52 -61.44,-12.52 -21.74,0 -42.13,4.17 -61.15,12.52 -19.02,8.35 -35.72,19.71 -50.08,34.06 -14.37,14.37 -25.62,31.06 -33.78,50.09 -8.15,19.02 -12.23,39.21 -12.23,60.57 0,21.35 4.08,41.54 12.23,60.57 8.16,19.02 19.41,35.62 33.78,49.79 14.37,14.17 31.06,25.43 50.08,33.78 19.03,8.34 39.41,12.52 61.15,12.52 14.75,0 28.83,-1.95 42.22,-5.83 13.39,-3.87 26.11,-9.31 38.15,-16.3l-43.68 -42.52 53.58 -53.57 43.1 44.26c16.31,-25.24 24.46,-52.8 24.46,-82.69zm419.3 232.94l-83.86 0 0 -18.05c-14.75,10.1 -30.38,17.08 -46.88,20.97 -16.5,3.88 -33.48,5.82 -50.96,5.82 -16.31,0 -31.06,-2.42 -44.26,-7.28 -13.19,-4.85 -24.65,-11.84 -34.35,-20.96 -9.71,-9.13 -17.18,-19.9 -22.43,-32.32 -5.24,-12.42 -7.86,-26.2 -7.86,-41.35 0,-19.03 4.17,-35.62 12.52,-49.79 8.35,-14.17 19.71,-26.01 34.07,-35.52 14.36,-9.51 31.15,-16.6 50.37,-21.26 19.22,-4.66 39.89,-6.99 62.02,-6.99l48.34 0c0,-19.8 -6.41,-35.52 -19.22,-47.17 -12.82,-11.65 -31.26,-17.47 -55.33,-17.47 -11.65,0 -23.68,2.13 -36.1,6.4 -12.42,4.27 -24.85,12.04 -37.27,23.29l-49.5 -50.08c17.86,-17.08 38.53,-30.28 62.02,-39.6 23.49,-9.32 47.66,-13.97 72.5,-13.97 23.3,0 44.07,3.69 62.22,11.06 18.15,7.38 32.9,16.89 44.07,28.54 14.65,14.75 24.94,31.25 30.96,49.5 5.92,18.25 8.93,41.55 8.93,69.89l0 186.36zm-83.86 -83.86l0 -62.31 -38.44 0c-11.65,0 -22.61,0.78 -32.9,2.33 -10.29,1.56 -19.22,4.17 -26.79,7.86 -7.57,3.69 -13.59,8.45 -18.05,14.27 -4.46,5.82 -6.7,12.82 -6.7,20.97 0,11.65 4.56,21.16 13.69,28.54 9.12,7.37 20.86,11.06 35.23,11.06 12.42,0 24.75,-1.94 36.98,-5.82 12.22,-3.88 24.55,-9.51 36.98,-16.88zm454.82 83.86l-83.86 0 0 -200.91c0,-12.04 -1.84,-22.62 -5.53,-31.74 -3.69,-9.13 -8.73,-16.69 -14.94,-22.71 -6.22,-6.02 -13.3,-10.48 -21.35,-13.39 -7.96,-2.91 -16.31,-4.36 -24.85,-4.36 -12.82,0 -25.53,2.23 -38.05,6.7 -12.42,4.46 -23.77,11.55 -33.87,21.26l0 245.17 -83.86 0 0 -336.6 83.86 0 0.59 25.04c5.05,-5.05 11.25,-9.71 18.63,-13.98 7.38,-4.27 15.05,-7.86 23,-10.77 7.96,-2.91 16.11,-5.14 24.46,-6.7 8.35,-1.56 16.4,-2.33 24.17,-2.33 17.08,0 33.49,2.71 49.22,8.15 15.72,5.44 29.7,13.78 41.93,25.04 12.23,11.26 22.03,25.82 29.41,43.68 7.37,17.85 11.06,39.01 11.06,63.48l0 204.99zm251.58 -7.57c-8.54,5.44 -18.44,9.51 -29.7,12.23 -11.26,2.71 -22.51,4.07 -33.78,4.07 -19.8,0 -36.49,-2.42 -50.08,-7.28 -13.59,-4.85 -24.46,-12.32 -32.61,-22.42 -8.15,-10.1 -14.07,-22.91 -17.76,-38.44 -3.69,-15.53 -5.53,-33.78 -5.53,-54.74l0 -147.33 -44.26 0 0 -37.86c27.17,-11.25 49.21,-27.95 66.1,-50.08 16.88,-22.13 28.43,-50.86 34.65,-86.18l27.37 0 0 98.42 85.03 0 0 75.71 -85.03 0 0 153.16c0,8.54 1.07,15.53 3.2,20.97 2.14,5.44 4.96,9.71 8.45,12.81 3.5,3.11 7.48,5.25 11.94,6.41 4.46,1.16 9.22,1.75 14.27,1.75 6.59,0 14.56,-1.16 23.87,-3.5 9.32,-2.33 17.28,-6.21 23.88,-11.65l0 73.96zm136.86 -387.86l-87.35 0 0 -87.35 87.35 0 0 87.35zm-1.17 395.43l-85.02 0 0 -337.19 85.02 0 0 337.19zm380.28 -50.67c-17.08,19.41 -37.66,34.17 -61.73,44.26 -24.07,10.1 -49.3,15.14 -75.71,15.14 -24.46,0 -47.56,-4.47 -69.3,-13.39 -21.74,-8.93 -40.57,-21.26 -56.59,-36.98 -16.01,-15.73 -28.63,-34.46 -37.85,-56.2 -9.22,-21.74 -13.88,-45.23 -13.88,-70.46 0,-24.85 4.66,-48.04 13.88,-69.6 9.22,-21.54 21.74,-40.27 37.56,-56.19 15.82,-15.92 34.65,-28.44 56.29,-37.56 21.74,-9.13 45.04,-13.68 69.89,-13.68 25.63,0 49.99,4.65 73.09,13.97 23.1,9.32 43.19,23.49 60.28,42.51l-56.49 57.65c-8.54,-11.25 -18.93,-20.57 -31.15,-27.95 -12.23,-7.37 -27.09,-11.06 -44.56,-11.06 -12.81,0 -24.94,2.71 -36.4,8.15 -11.45,5.44 -21.54,12.72 -30.28,21.84 -8.73,9.12 -15.62,19.9 -20.68,32.32 -5.05,12.42 -7.56,25.62 -7.56,39.6 0,13.97 2.52,27.17 7.56,39.6 5.05,12.42 11.85,23.2 20.39,32.32 8.53,9.12 18.63,16.4 30.28,21.83 11.65,5.44 23.88,8.16 36.69,8.16 16.7,0 31.83,-3.98 45.43,-11.94 13.59,-7.96 24.46,-18.14 32.61,-30.57l58.24 58.23zm389.02 -117.63c0,25.23 -4.66,48.62 -13.98,70.17 -9.31,21.54 -22.13,40.18 -38.44,55.91 -16.31,15.72 -35.43,28.15 -57.36,37.27 -21.94,9.12 -45.33,13.68 -70.17,13.68 -24.85,0 -48.14,-4.56 -69.89,-13.68 -21.74,-9.13 -40.77,-21.65 -57.07,-37.56 -16.31,-15.92 -29.12,-34.65 -38.44,-56.2 -9.32,-21.54 -13.98,-44.74 -13.98,-69.59 0,-24.46 4.76,-47.47 14.27,-69.01 9.51,-21.54 22.42,-40.38 38.72,-56.49 16.31,-16.11 35.33,-28.73 57.08,-37.85 21.74,-9.13 44.84,-13.68 69.3,-13.68 24.84,0 48.24,4.56 70.17,13.68 21.93,9.12 41.05,21.54 57.36,37.27 16.31,15.72 29.12,34.45 38.44,56.19 9.32,21.74 13.98,45.04 13.98,69.89zm-83.86 0c0,-14.37 -2.53,-27.76 -7.57,-40.18 -5.05,-12.42 -11.85,-23.29 -20.58,-32.61 -8.73,-9.32 -18.92,-16.6 -30.47,-21.84 -11.65,-5.24 -23.97,-7.86 -37.18,-7.86 -13.2,0 -25.53,2.62 -37.18,7.86 -11.55,5.25 -21.74,12.52 -30.47,21.84 -8.73,9.32 -15.54,20.19 -20.58,32.61 -5.05,12.42 -7.57,25.82 -7.57,40.18 0,14.37 2.53,27.76 7.57,40.18 5.05,12.42 11.85,23.29 20.58,32.61 8.73,9.31 18.92,16.6 30.47,21.83 11.65,5.25 23.97,7.86 37.18,7.86 13.2,0 25.53,-2.62 37.18,-7.86 11.55,-5.24 21.74,-12.52 30.47,-21.83 8.73,-9.32 15.54,-20.19 20.58,-32.61 5.05,-12.42 7.57,-25.82 7.57,-40.18z"/>
   <path class="fil4" d="M2812.45 4087.54c0,22.13 -4.17,42.81 -12.52,62.02 -8.44,19.22 -19.8,35.91 -34.16,50.08 -14.46,14.17 -31.35,25.23 -50.76,33.19 -19.51,7.96 -40.09,11.94 -61.92,11.94l-77.07 0 0 151.99 -90.27 0 0 -465.3 167.43 0c21.74,0 42.41,3.98 61.82,11.94 19.51,7.96 36.4,18.93 50.76,32.9 14.37,13.98 25.82,30.48 34.16,49.5 8.35,19.03 12.52,39.6 12.52,61.73zm-90.27 -1.16c0,-12.03 -2.23,-23.29 -6.7,-33.78 -4.46,-10.48 -10.57,-19.61 -18.34,-27.37 -7.76,-7.76 -16.88,-13.97 -27.37,-18.63 -10.48,-4.66 -21.74,-6.99 -33.78,-6.99l-59.99 0 0 175.87 59.99 0c12.03,0 23.29,-2.43 33.78,-7.28 10.48,-4.85 19.6,-11.36 27.37,-19.51 7.77,-8.16 13.88,-17.57 18.34,-28.25 4.47,-10.68 6.7,-22.03 6.7,-34.06zm624.29 77.46c0,33.38 -6.5,64.83 -19.51,94.34 -13.01,29.5 -30.67,55.13 -53.19,76.87 -22.51,21.74 -48.72,38.92 -78.52,51.53 -29.89,12.62 -61.63,18.93 -95.42,18.93 -33.78,0 -65.61,-6.31 -95.7,-18.93 -29.99,-12.62 -56.3,-29.8 -78.81,-51.53 -22.52,-21.74 -40.18,-47.27 -53.19,-76.58 -13,-29.32 -19.51,-60.85 -19.51,-94.63 0,-33.78 6.5,-65.43 19.51,-94.93 13.01,-29.51 30.67,-55.13 53.19,-76.87 22.51,-21.74 48.82,-38.83 78.81,-51.25 30.09,-12.42 61.92,-18.63 95.7,-18.63 33.78,0 65.52,6.21 95.42,18.63 29.8,12.42 56,29.6 78.52,51.54 22.52,21.94 40.18,47.56 53.19,76.87 13,29.32 19.51,60.85 19.51,94.64zm-90.27 0c0,-21.36 -4.07,-41.44 -12.23,-60.28 -8.15,-18.83 -19.41,-35.33 -33.58,-49.5 -14.17,-14.17 -30.78,-25.43 -49.9,-33.78 -19.02,-8.35 -39.3,-12.52 -60.66,-12.52 -21.74,0 -42.22,4.17 -61.24,12.52 -19.12,8.35 -35.72,19.6 -49.89,33.78 -14.17,14.17 -25.43,30.67 -33.58,49.5 -8.16,18.83 -12.23,38.92 -12.23,60.28 0,20.96 4.07,40.95 12.23,59.98 8.15,19.03 19.41,35.62 33.58,49.79 14.17,14.17 30.77,25.43 49.89,33.78 19.02,8.35 39.5,12.52 61.24,12.52 21.36,0 41.64,-4.17 60.66,-12.52 19.12,-8.35 35.72,-19.6 49.9,-33.78 14.17,-14.17 25.43,-30.77 33.58,-49.79 8.16,-19.03 12.23,-39.02 12.23,-59.98zm471.71 110.65c0,17.47 -3.79,34.06 -11.36,49.79 -7.57,15.73 -18.15,29.6 -31.74,41.64 -13.59,12.03 -29.7,21.64 -48.33,28.83 -18.64,7.18 -39.21,10.77 -61.73,10.77 -20.19,0 -38.34,-1.16 -54.45,-3.5 -16.11,-2.33 -31.25,-6.02 -45.42,-11.06 -14.17,-5.05 -27.76,-11.55 -40.77,-19.51 -13,-7.96 -26.49,-17.57 -40.47,-28.83l64.06 -64.65c18.63,15.53 36.88,26.5 54.74,32.91 17.85,6.4 37.27,9.61 58.23,9.61 8.54,0 16.6,-1.27 24.17,-3.79 7.57,-2.53 14.17,-5.92 19.8,-10.19 5.63,-4.27 10.1,-9.32 13.39,-15.14 3.3,-5.82 4.95,-12.22 4.95,-19.22 0,-7.37 -1.36,-13.97 -4.07,-19.8 -2.72,-5.82 -7.57,-11.45 -14.56,-16.89 -6.99,-5.44 -16.69,-10.96 -29.12,-16.6 -12.42,-5.63 -28.34,-11.94 -47.75,-18.93 -17.08,-6.21 -33.49,-13.3 -49.21,-21.26 -15.73,-7.96 -29.51,-17.57 -41.35,-28.83 -11.85,-11.26 -21.36,-24.46 -28.54,-39.6 -7.19,-15.14 -10.77,-33 -10.77,-53.58 0,-19.8 3.98,-38.05 11.94,-54.74 7.96,-16.69 18.83,-30.96 32.61,-42.8 13.78,-11.85 29.89,-21.06 48.33,-27.66 18.44,-6.6 38.34,-9.91 59.69,-9.91 35.72,0 65.81,4.66 90.27,13.98 24.46,9.32 46.21,22.91 65.23,40.76l-62.89 63.48c-11.65,-11.25 -24.66,-19.89 -39.02,-25.92 -14.37,-6.02 -31.25,-9.02 -50.67,-9.02 -8.93,0 -17.17,1.36 -24.74,4.07 -7.57,2.72 -14.08,6.31 -19.51,10.78 -5.43,4.46 -9.8,9.71 -13.1,15.72 -3.3,6.02 -4.95,12.33 -4.95,18.93 0,7.37 1.55,14.07 4.65,20.09 3.11,6.02 8.35,11.84 15.73,17.47 7.37,5.62 17.18,11.26 29.4,16.88 12.23,5.63 27.47,11.74 45.72,18.34 23.29,8.16 43.29,17.08 59.98,26.79 16.7,9.71 30.29,20.38 40.77,32.03 10.48,11.65 18.25,24.74 23.29,39.3 5.05,14.57 7.57,30.97 7.57,49.22z"/>
  </g>
 </g>
</svg>
